<svg id="Layer_1" data-name="Layer 1" xmlns="http://www.w3.org/2000/svg" viewBox="0 0 899.33 306.33"><defs><style>.cls-1,.cls-3{fill:#421877;}.cls-2{fill:#00e5b6;}.cls-3{opacity:0.35;}.cls-4{fill:#ffb802;}.cls-5{fill:#ff7060;}</style></defs><title>HiPlot-Logo</title><path class="cls-1" d="M260.26,106.26H301V264.79H260.26Z"/><path class="cls-1" d="M339.83,42.23h78.33a83.73,83.73,0,0,1,38.55,8.86A67.54,67.54,0,0,1,484.06,76Q494,92,494,112.48t-9.95,36.67a67.24,67.24,0,0,1-27.35,25A83.86,83.86,0,0,1,418.16,183H381.8v81.75h-42Zm79.58,101q15.54,0,24.4-9a29.94,29.94,0,0,0,8.86-21.76,29.44,29.44,0,0,0-8.86-21.61Q434.94,82,419.41,82H381.8v61.23Z"/><path class="cls-1" d="M519.18,42.23H559.9V264.79H519.18Z"/><path class="cls-1" d="M627.35,258.72a78.34,78.34,0,0,1-30-30.14q-10.71-19.12-10.72-43.06a86.81,86.81,0,0,1,10.72-42.89,78.09,78.09,0,0,1,30-30.31q19.27-11,43.83-11,24.24,0,43.52,11a78.14,78.14,0,0,1,30,30.31q10.72,19.27,10.72,42.89,0,23.94-10.72,43.06a78.38,78.38,0,0,1-30,30.14q-19.29,11-43.52,11Q646.61,269.76,627.35,258.72Zm65.59-32.17a41,41,0,0,0,15.85-16.16q5.9-10.56,5.91-24.87,0-14-5.91-24.55a41.17,41.17,0,0,0-15.85-16.17,45.15,45.15,0,0,0-43.52,0,42.17,42.17,0,0,0-16,16.17q-6.06,10.56-6.06,24.55a49.38,49.38,0,0,0,6.06,24.72,41.8,41.8,0,0,0,16,16.31,45.08,45.08,0,0,0,43.52,0Z"/><polygon class="cls-1" points="775.32 264.79 816.13 264.79 816.13 141.08 858 141.08 858 106.27 816.13 106.27 816.13 61.51 816.04 61.51 775.32 61.51 775.32 264.79"/><circle class="cls-1" cx="280.62" cy="62.59" r="26.27"/><polygon class="cls-2" points="176.3 165.16 176.3 205.12 82.35 230.09 82.35 190.14 112.68 182.08 138.05 175.34 176.3 165.16"/><polygon class="cls-3" points="176.3 159.04 176.3 198.99 112.68 182.08 138.05 175.34 82.35 160.53 82.35 134.06 176.3 159.04"/><path class="cls-1" d="M176.3,41.29V264.78h42.15V41.29ZM40.21,264.78H82.35V41.29H40.21Z"/><polygon class="cls-4" points="176.3 145.54 176.3 185.5 138.05 175.34 82.35 160.53 82.35 120.58 126.75 132.38 151.17 138.87 176.3 145.54"/><polygon class="cls-3" points="176.3 119.2 126.75 132.38 151.17 138.87 125.79 145.62 82.35 157.16 82.35 117.21 176.3 92.24 176.3 119.2"/><polygon class="cls-5" points="176.3 79.25 176.3 119.2 126.75 132.38 101.38 139.12 82.35 144.18 82.35 104.23 176.3 79.25"/></svg>
