<svg id="Layer_1" data-name="Layer 1" xmlns="http://www.w3.org/2000/svg" viewBox="0 0 948 843"><defs><style>.cls-1{fill:#00e5b6;}.cls-2,.cls-3{fill:#421877;}.cls-2{opacity:0.35;}.cls-4{fill:#ffb802;}.cls-5{fill:#ff7060;}</style></defs><title>HiPlot-Icon</title><polygon class="cls-1" points="480.36 462.47 480.36 569.88 227.76 637.03 227.76 529.62 309.31 507.94 377.52 489.82 480.36 462.47"/><polygon class="cls-2" points="480.36 446 480.36 553.42 309.31 507.94 377.52 489.82 227.76 450.01 227.76 378.85 480.36 446"/><path class="cls-3" d="M706.12,302.3H816.05v428H706.12Z"/><circle class="cls-3" cx="761.08" cy="184.39" r="70.92"/><path class="cls-3" d="M480.36,129.43V730.3H593.67V129.43ZM114.48,730.3H227.76V129.43H114.48Z"/><polygon class="cls-4" points="480.36 409.72 480.36 517.13 377.52 489.82 227.76 450.01 227.76 342.6 347.14 374.33 412.81 391.77 480.36 409.72"/><polygon class="cls-2" points="480.36 338.9 347.14 374.33 412.81 391.77 344.56 409.92 227.76 440.96 227.76 333.55 480.36 266.4 480.36 338.9"/><polygon class="cls-5" points="480.36 231.49 480.36 338.9 347.14 374.33 278.93 392.45 227.76 406.06 227.76 298.64 480.36 231.49"/></svg>
